<?xml version="1.0" encoding="utf-8"?>
<!-- Generator: Adobe Illustrator 26.0.0, SVG Export Plug-In . SVG Version: 6.00 Build 0)  -->
<svg version="1.1" id="Layer_1" xmlns="http://www.w3.org/2000/svg" xmlns:xlink="http://www.w3.org/1999/xlink" x="0px" y="0px"
	 viewBox="0 0 318.07 428.04" style="enable-background:new 0 0 318.07 428.04;" xml:space="preserve">
<style type="text/css">
	.st0{fill:none;stroke:#000000;stroke-width:35;stroke-miterlimit:10;}
	.st1{fill:none;}
	.st2{fill:#98E5FB;}
	.st3{fill:#61D5F3;}
	.st4{fill:#518ED6;}
	.st5{fill:#0A70C6;}
</style>
<path class="st0" d="M154.24,22.46h-32.59c-2.29,0-4.15,1.86-4.15,4.15v30.95c0,2.29,1.86,4.15,4.15,4.15h0
	c2.29,0,4.15,1.86,4.15,4.15v12.21c0,1.8-1.16,3.39-2.87,3.95l-67.55,21.95c0,0-13.05,3.35-13.05,17.46v13.65
	c0,2.29-1.86,4.15-4.15,4.15h-3.16c-2.29,0-4.15,1.86-4.15,4.15v33.23c0,2.29,1.86,4.15,4.15,4.15h2.37c2.29,0,4.15,1.86,4.15,4.15
	v132.13c0,2.29-1.86,4.15-4.15,4.15h-2.37c-2.29,0-4.15,1.86-4.15,4.15v28.48c0,2.29,1.86,4.15,4.15,4.15h2.56
	c2.29,0,4.15,1.86,4.15,4.15v26.51c0,2.29,1.86,4.15,4.15,4.15h108.36"/>
<path class="st0" d="M154.21,22.46h32.59c2.29,0,4.15,1.86,4.15,4.15v30.95c0,2.29-1.86,4.15-4.15,4.15h0
	c-2.29,0-4.15,1.86-4.15,4.15v12.21c0,1.8,1.16,3.39,2.87,3.95l67.55,21.95c0,0,13.05,3.35,13.05,17.46v13.65
	c0,2.29,1.86,4.15,4.15,4.15h3.16c2.29,0,4.15,1.86,4.15,4.15v33.23c0,2.29-1.86,4.15-4.15,4.15h-2.37c-2.29,0-4.15,1.86-4.15,4.15
	v132.13c0,2.29,1.86,4.15,4.15,4.15h2.37c2.29,0,4.15,1.86,4.15,4.15v28.48c0,2.29-1.86,4.15-4.15,4.15h-2.56
	c-2.29,0-4.15,1.86-4.15,4.15v26.51c0,2.29-1.86,4.15-4.15,4.15H154.21"/>
<g>
	<g>
		<path class="st1" d="M125.51,89.6c-0.03,0.01-0.06,0.02-0.09,0.03l-11.05,3.59c1.93-0.52,3.86-1.03,5.8-1.55
			C122.26,91.12,124.03,90.44,125.51,89.6z"/>
		<path class="st1" d="M194.59,93.39l-11.52-3.75c-0.06-0.02-0.12-0.05-0.18-0.07c1.36,0.82,2.93,1.47,4.72,1.94
			C189.93,92.13,192.26,92.76,194.59,93.39z"/>
		<path class="st1" d="M243.29,199.62v-60.57c-0.02,0-0.03,0-0.05,0c-0.01,0-0.03,0-0.04,0v60.57v101.83v83.38h0.09v-83.38V199.62z"
			/>
		<path class="st2" d="M49.55,301.45v15.63c0,6.2-4.67,11.34-10.68,12.06v20.95c6.1,0.64,10.87,5.82,10.87,12.09v22.66h104.49h0.03
			h88.95v-83.38H49.55z"/>
		<path class="st3" d="M258.74,362.18c0-6.27,4.77-11.44,10.87-12.09v-20.95c-6.01-0.73-10.68-5.86-10.68-12.06v-15.63h-15.64v83.38
			h15.45V362.18z"/>
		<rect x="49.55" y="199.62" class="st4" width="193.65" height="101.83"/>
		<rect x="243.29" y="199.62" class="st5" width="15.64" height="101.83"/>
		<path class="st2" d="M237.4,120.67c-10.99-3.09-22.03-6-33.05-8.94c-11.63-3.11-23.28-6.11-34.89-9.28
			c-7.21-1.97-11.43-7.64-11.47-15.14c-0.03-4.97-0.01-14.6-0.01-21.32c-8.06,0.09-16.11-0.01-24.17-0.04v12.13
			c0,5.25-3.33,9.86-8.3,11.52c-1.48,0.83-3.25,1.51-5.35,2.08c-1.93,0.52-3.86,1.03-5.8,1.55l-56.95,18.5
			c-1.36,0.41-7.08,2.58-7.08,9.72v13.65c0,0.33-0.02,0.66-0.05,0.99c-0.09,1.11-0.33,2.17-0.7,3.17
			c-1.63,4.45-5.78,7.69-10.72,7.97v25.65c6.01,0.73,10.68,5.86,10.68,12.06v14.67h193.65v-60.57c0.01,0,0.03,0,0.04,0
			c0.01-3.49,0.05-6.98,0.03-10.47C243.25,124.14,241.78,121.9,237.4,120.67z"/>
		<path class="st3" d="M258.88,139.23c-0.36-1-0.6-2.05-0.69-3.14c-0.03-0.33-0.05-0.66-0.05-0.99v-13.65
			c0-7.17-5.76-9.32-7.09-9.73l-0.44-0.13l-56.02-18.21c-2.33-0.63-4.66-1.25-6.99-1.87c-1.79-0.47-3.36-1.12-4.72-1.94
			c-4.92-1.69-8.21-6.28-8.21-11.49V66.02c-4.44,0.06-8.88,0.12-13.31-0.09c-1.12,0.02-2.25,0.05-3.37,0.06
			c-0.01,6.71-0.02,16.35,0.01,21.32c0.04,7.49,4.26,13.17,11.47,15.14c11.61,3.17,23.26,6.18,34.89,9.28
			c11.03,2.95,22.07,5.85,33.05,8.94c4.38,1.23,5.85,3.48,5.88,7.91c0.02,3.49-0.02,6.98-0.03,10.47c0.02,0,0.03,0,0.05,0v60.57
			h15.64v-14.67c0-6.2,4.67-11.34,10.68-12.06v-25.65C264.66,146.96,260.5,143.7,258.88,139.23z"/>
		<path class="st4" d="M157.98,61.92c0.03-9.25,0.05-22.65,0.08-31.46h-3.8h-0.03h-28.72v23.88c4.38,1.47,7.65,5.37,8.21,10.09
			c0.06,0.47,0.1,0.95,0.1,1.44v0.08c8.06,0.03,16.11,0.13,24.17,0.04c0-0.1,0-0.18,0-0.28c0,0-0.01,0-0.01,0
			C157.98,64.56,157.98,63.28,157.98,61.92z"/>
		<path class="st4" d="M157.98,65.71c0,0.09,0,0.18,0,0.28c1.12-0.01,2.25-0.04,3.37-0.06C160.23,65.87,159.11,65.81,157.98,65.71z"
			/>
		<path class="st5" d="M157.98,61.92c0,1.36-0.01,2.64-0.01,3.79c0,0,0.01,0,0.01,0C157.98,64.28,157.99,62.99,157.98,61.92
			C157.99,61.92,157.98,61.92,157.98,61.92z"/>
		<path class="st5" d="M169.17,30.46h-11.11c-0.03,8.81-0.05,22.21-0.08,31.46c0,0,0,0,0,0c0,1.07,0,2.36,0,3.79
			c1.12,0.1,2.25,0.16,3.37,0.22c4.43,0.21,8.87,0.15,13.31,0.09v-0.16c0-1.44,0.26-2.83,0.72-4.11c1.26-3.49,4.06-6.24,7.58-7.42
			V30.46H169.17z"/>
	</g>
</g>
</svg>
